<?xml version="1.0" standalone="no"?><!DOCTYPE svg PUBLIC "-//W3C//DTD SVG 1.1//EN" "http://www.w3.org/Graphics/SVG/1.1/DTD/svg11.dtd"><svg t="1597332020556" class="icon" viewBox="0 0 1024 1024" version="1.1" xmlns="http://www.w3.org/2000/svg" p-id="2540" xmlns:xlink="http://www.w3.org/1999/xlink" width="200" height="200"><defs><style type="text/css"></style></defs><path d="M719.2 400c20-14.4 32.8-37.6 32.8-64 0-44-36-80-80-80-4.8 0-8.8 0.8-12.8 0.8l-44 5.6c0.8-4.8 0.8-9.6 0.8-15.2 0-66.4-53.6-120-120-120-32 0-60.8 12-81.6 32.8 20 12.8 33.6 35.2 33.6 60.8 0 36.8-28 67.2-63.2 71.2l-32 4C307.2 304.8 272 344 272 392c0 29.6 12.8 55.2 33.6 72.8l-52 8.8c-46.4 8.8-81.6 49.6-81.6 98.4C172 627.2 216.8 672 272 672l440 8c77.6 0 140-62.4 140-140 0-75.2-58.4-136-132.8-140z" fill="#FFFFFF" p-id="2541"></path><path d="M272 696c-68 0-124-56-124-124 0-13.6 10.4-24 24-24s24 10.4 24 24c0 41.6 34.4 76 76 76 13.6 0 24 10.4 24 24s-10.4 24-24 24z" fill="#3F4A54" p-id="2542"></path><path d="M851.2 527.2v-3.2c0-2.4-0.8-4.8-0.8-7.2 0-2.4-0.8-4-1.6-6.4-0.8-2.4-1.6-5.6-1.6-8 0-1.6-0.8-2.4-0.8-4-0.8-3.2-2.4-7.2-4-10.4-0.8-1.6-0.8-2.4-1.6-4-0.8-2.4-2.4-4.8-3.2-7.2l-2.4-4.8c-0.8-1.6-1.6-3.2-3.2-4.8-0.8-1.6-2.4-3.2-3.2-5.6-0.8-1.6-1.6-2.4-3.2-4s-2.4-4-4-5.6l-0.8-0.8c-4-4.8-8-8.8-12.8-13.6l-1.6-1.6c-2.4-1.6-4-4-6.4-5.6-0.8-0.8-1.6-0.8-1.6-1.6-2.4-1.6-4.8-4-7.2-5.6 0 0-0.8 0-0.8-0.8-13.6-9.6-29.6-16-46.4-20 0-2.4 0.8-4.8 0-7.2-0.8-5.6-3.2-9.6-7.2-13.6 9.6-13.6 16-29.6 16-47.2 0-44-36-80-80-80-4.8 0-8.8 0.8-12.8 0.8l-16 2.4v-0.8c-1.6-12.8-13.6-22.4-27.2-20.8l-65.6 9.6c-12.8 1.6-22.4 13.6-20.8 27.2 1.6 12 12 20.8 24 20.8h3.2l65.6-9.6c0.8 0 2.4 0 3.2-0.8 14.4-4 30.4 0.8 36.8 13.6 5.6 11.2 9.6 24 9.6 37.6v0.8c0 26.4-20 49.6-46.4 53.6L512 405.6c-12 1.6-22.4 12-21.6 24.8 0.8 13.6 11.2 23.2 24 23.2h3.2l161.6-24c25.6-4 52 6.4 67.2 28 0 0 0 0.8 0.8 0.8 17.6 24.8 17.6 56.8 0 81.6C720.8 576.8 679.2 600 632 600l-82.4-1.6c-20.8-0.8-37.6 16-37.6 36.8 0 20 16 36.8 36.8 36.8 32 0.8 80 1.6 122.4 1.6-7.2 2.4-14.4 4-21.6 4.8l62.4 1.6c16 0 31.2-2.4 45.6-8h1.6c1.6-0.8 3.2-1.6 5.6-2.4 0.8-0.8 2.4-0.8 3.2-1.6 4-1.6 7.2-3.2 11.2-5.6 0.8 0 0.8-0.8 1.6-0.8 3.2-1.6 6.4-4 9.6-5.6 0.8-0.8 2.4-1.6 3.2-2.4l7.2-4.8c0.8-0.8 2.4-1.6 3.2-2.4 2.4-1.6 4.8-4 7.2-6.4l2.4-2.4c3.2-3.2 5.6-5.6 8-8.8 0.8-0.8 0.8-1.6 1.6-2.4 1.6-2.4 4-4.8 5.6-8 0.8-0.8 1.6-2.4 2.4-3.2l4.8-7.2c0.8-0.8 1.6-2.4 1.6-3.2l4.8-9.6c0-0.8 0.8-1.6 0.8-1.6 1.6-4 3.2-8 4-12 0-0.8 0.8-2.4 0.8-3.2 0.8-3.2 1.6-5.6 2.4-8.8 0-1.6 0.8-3.2 0.8-4 0.8-3.2 0.8-5.6 1.6-8.8 0-1.6 0-2.4 0.8-4 0-4 0.8-8.8 0.8-12.8-2.4-4-2.4-8.8-3.2-12.8z" fill="#CADBEA" p-id="2543"></path><path d="M752 672H272l32 240h416z" fill="#FFDD7D" p-id="2544"></path><path d="M752 672H648l-24 240h96zM512 936c-13.6 0-24-10.4-24-24V792c0-13.6 10.4-24 24-24s24 10.4 24 24v120c0 13.6-10.4 24-24 24z" fill="#DBA777" p-id="2545"></path><path d="M624 936h-1.6c-13.6-0.8-23.2-12-22.4-25.6l8-120c0.8-13.6 12.8-23.2 25.6-22.4 13.6 0.8 23.2 12 22.4 25.6l-8 120c-0.8 12.8-11.2 22.4-24 22.4zM400 936c-12.8 0-23.2-9.6-24-22.4l-8-120c-0.8-13.6 8.8-24.8 22.4-25.6 12.8-0.8 24.8 8.8 25.6 22.4l8 120c0.8 13.6-8.8 24.8-22.4 25.6H400z" fill="#DBA777" p-id="2546"></path><path d="M720 936H304c-12 0-22.4-8.8-24-20.8l-32-240c-1.6-12.8 7.2-25.6 20.8-27.2 13.6-1.6 25.6 7.2 27.2 20.8l29.6 219.2h373.6l25.6-192H436c-13.6 0-24-10.4-24-24s10.4-24 24-24H752c7.2 0 13.6 3.2 18.4 8 4.8 5.6 6.4 12 5.6 19.2l-32 240c-1.6 12-12 20.8-24 20.8z" fill="#3F4A54" p-id="2547"></path><path d="M752.8 698.4c-10.4 0-20-6.4-23.2-16.8-4-12.8 3.2-26.4 16-29.6 48.8-14.4 82.4-60 82.4-111.2 0-61.6-48-112.8-109.6-116-9.6-0.8-18.4-6.4-21.6-16-3.2-8.8-0.8-19.2 6.4-25.6l12.8-11.2c8-9.6 12.8-22.4 12.8-35.2 0-31.2-24.8-56-56-56-2.4 0-5.6 0-8.8 0.8h-3.2l-41.6 5.6c-7.2 0.8-14.4-1.6-19.2-6.4-5.6-4.8-8-12-7.2-19.2l0.8-13.6c-2.4-53.6-44.8-96-97.6-96-15.2 0-30.4 4-44 10.4 12.8 16.8 20 36.8 20 58.4 0 48.8-36 89.6-84 95.2-12.8 1.6-24.8-8-26.4-20.8-1.6-12.8 8-24.8 20.8-26.4 24-3.2 42.4-23.2 42.4-47.2 0-16.8-8.8-32-22.4-40.8-6.4-4-10.4-10.4-11.2-18.4-0.8-7.2 2.4-14.4 7.2-20C424.8 117.6 459.2 104 496 104c75.2 0 136.8 57.6 143.2 131.2l16-2.4h1.6c5.6-0.8 10.4-0.8 15.2-0.8 57.6 0 104 46.4 104 104 0 16.8-4 33.6-12 48.8 65.6 21.6 112 83.2 112 155.2 0 72.8-46.4 136-116.8 156.8-1.6 0.8-4 1.6-6.4 1.6z" fill="#3F4A54" p-id="2548"></path><path d="M300 484c-6.4 0-12-2.4-16.8-7.2C260.8 454.4 248 424 248 392c0-58.4 41.6-108 99.2-118.4 0.8 0 2.4-0.8 3.2-0.8l32-4c12.8-1.6 24.8 7.2 27.2 20.8s-7.2 24.8-20.8 27.2l-29.6 4h-1.6c-36 5.6-61.6 35.2-61.6 71.2 0 19.2 7.2 37.6 20.8 51.2 9.6 9.6 9.6 24.8 0 33.6-4.8 4.8-10.4 7.2-16.8 7.2z" fill="#3F4A54" p-id="2549"></path><path d="M200 665.6c-6.4 0-12.8-2.4-17.6-7.2-22.4-23.2-35.2-53.6-35.2-86.4 0-59.2 41.6-110.4 100-121.6 0.8 0 1.6 0 2.4-0.8l52-8.8c12.8-2.4 25.6 6.4 27.2 20 2.4 12.8-6.4 25.6-20 27.2l-50.4 8h-0.8c-36 6.4-62.4 38.4-62.4 74.4 0 20 8 38.4 21.6 52.8 9.6 9.6 8.8 24.8-0.8 33.6-4 6.4-9.6 8.8-16 8.8z" fill="#3F4A54" p-id="2550"></path></svg>